<?xml version="1.0" encoding="utf-8"?>
<?xml-stylesheet type="text/xsl" href="rss1.xsl"?>
<rss version="2.0" xmlns:atom="http://www.w3.org/2005/Atom" xmlns:content="http://purl.org/rss/1.0/modules/content/" xmlns:dc="http://purl.org/dc/elements/1.1/" xmlns:media="http://search.yahoo.com/mrss/">
<channel>
 <title>Getty</title>
 <link>http://www.gettyimg.com/</link>
 <atom:link href="http://www.gettyimg.com/" rel="self" type="application/rss+xml" />

 
                <item>
                <title><![CDATA[【HD Live Performances】FEED - [Keith Urban "Blue Ain't Your Color" @ THE VOICE FINALE 2023-12-19] [BACKHAUL] [1080i29.97] [32MBPS] [H.264] [FLAC 5.1] [TrollHD]]]></title>
                <link><![CDATA[https://sharemania.us/threads/keith-urban-blue-aint-your-color-the-voice-finale-2023-12-19-backhaul-1080i29-97-32mbps-h-264-flac-5-1-trollhd.235921/]]></link>
                <description><![CDATA[<article>
<blockquote class="messageText SelectQuoteContainer ugc baseHtml">
<div style="padding-left: 30px"><div style="padding-left: 30px"><b><span style="font-size: 22px"><span style="color: rgb(255, 0, 0)">Keith Urban - Blue Ain't Your Color - The Voice (2023)</span></span></b><br>
<div style="padding-left: 30px"><div style="padding-left: 30px"><b><span style="font-size: 22px"><span style="color: rgb(255, 0, 0)">1080i BACKHAUL FLAC 5.1 H.264-TrollHD</span></span></b>​</div></div></div></div><br>
<img src="https://i.postimg.cc/sXvVZNrN/Keith-Urban-Blue-Ain-t-Your-Color-The-Voice-2023-1080i-BACKHAUL-FLAC-5-1-H-264-Troll-HD-mkv-sna.png" class="bbCodeImage LbImage" alt="[​IMG]" data-url="https://i.postimg.cc/sXvVZNrN/Keith-Urban-Blue-Ain-t-Your-Color-The-Voice-2023-1080i-BACKHAUL-FLAC-5-1-H-264-Troll-HD-mkv-sna.png" style=""><br>
<img src="https://i.postimg.cc/DydKmTGz/Keith-Urban-Blue-Ain-t-Your-Color-The-Voice-2023-1080i-BACKHAUL-FLAC-5-1-H-264-Troll-HD-mkv.jpg" class="bbCodeImage LbImage" alt="[​IMG]" data-url="https://i.postimg.cc/DydKmTGz/Keith-Urban-Blue-Ain-t-Your-Color-The-Voice-2023-1080i-BACKHAUL-FLAC-5-1-H-264-Troll-HD-mkv.jpg" style=""><br>
<br>
<div class="bbCodeBlock bbCodeCode">
<div class="type">Code:</div>
<pre>General
Unique ID                      : 100799412311235154129442617846232883494 (0x4BD542BA43F0B1A29E092BBAF099A126)
Format                         : Matroska
Format version                 : Version 4
File size                      : 984 MiB
Duration                       : 4 min 12 s
Overall bit rate mode          : Variable
Overall bit rate               : 32.7 Mb/s
Encoded date                   : UTC 2024-01-16 18:53:34
Writing application            : mkvmerge v30.0.0 ('Interstellar') 64-bit
Writing library                : libebml v1.3.6 + libmatroska v1.4.9

Video
ID                             : 1
Format                         : AVC
Format/Info                    : Advanced Video Codec
Format profile                 : High@L4.1
Format settings                : 3 Ref Frames
Format settings, CABAC         : No
Format settings, Reference fra : 3 frames
Codec ID                       : V_MPEG4/ISO/AVC
Duration                       : 4 min 11 s
Bit rate mode                  : Constant
Bit rate                       : 31.3 Mb/s
Width                          : 1 920 pixels
Height                         : 1 080 pixels
Display aspect ratio           : 16:9
Frame rate mode                : Variable
Frame rate                     : 59.940 FPS
Original frame rate            : 29.970 (30000/1001) FPS
Color space                    : YUV
Chroma subsampling             : 4:2:0
Bit depth                      : 8 bits
Scan type                      : Interlaced
Scan type, store method        : Separated fields
Scan order                     : Top Field First
Bits/(Pixel*Frame)             : 0.252
Stream size                    : 940 MiB (96%)
Default                        : Yes
Forced                         : No
Color range                    : Limited
Color primaries                : BT.709
Transfer characteristics       : BT.709
Matrix coefficients            : BT.709

Audio
ID                             : 2
Format                         : FLAC
Format/Info                    : Free Lossless Audio Codec
Codec ID                       : A_FLAC
Duration                       : 4 min 11 s
Bit rate mode                  : Variable
Bit rate                       : 1 450 kb/s
Channel(s)                     : 6 channels
Channel layout                 : L R C LFE Ls Rs
Sampling rate                  : 48.0 kHz
Frame rate                     : 11.719 FPS (4096 SPF)
Bit depth                      : 16 bits
Compression mode               : Lossless
Delay relative to video        : 127 ms
Stream size                    : 43.5 MiB (4%)
Writing library                : libFLAC 1.3.2 (UTC 2019-08-04)
Language                       : English
Default                        : Yes
Forced                         : No

</pre>
</div>
<div class="bbCodeBlock bbCodeVfcHH HiddenContent">
<div class="attribution type">Hidden Content:</div>
<blockquote>You must either reply or click 'Like' to see the hidden information contained here.</blockquote>
</div><br>
<br>
Cutted with:<br>
<b>MKVToolNix GUI</b><br>
<span style="color: rgb(255, 0, 0)"><br>
<b><img src="styles/default/xenforo/smilies/super_man-48.png" class="mceSmilie" alt=":super:" title="Super Man    :super:"><img src="styles/default/xenforo/smilies/super_man-48.png" class="mceSmilie" alt=":super:" title="Super Man    :super:"><img src="styles/default/xenforo/smilies/super_man-48.png" class="mceSmilie" alt=":super:" title="Super Man    :super:"></b></span><br>
<b><span style="color: rgb(255, 0, 0)"><br>
</span></b>
<div class="messageTextEndMarker">&nbsp;</div>
</blockquote>
</article>]]></description>
                <author><![CDATA[Dream66]]></author>
                </item>

                </channel></rss>